<?xml version="1.0" standalone="no"?><!DOCTYPE svg PUBLIC "-//W3C//DTD SVG 1.1//EN" "http://www.w3.org/Graphics/SVG/1.1/DTD/svg11.dtd" ><svg xmlns="http://www.w3.org/2000/svg"><metadata></metadata><defs><font id="FontForge 2.0 : iconfont : 28-3-2020" horiz-adv-x="1792"><font-face font-family="iconfont" font-weight="400" font-stretch="normal" units-per-em="1024" panose-1="2 0 5 3 0 0 0 0 0 0" ascent="1023" descent="-108" x-height="0" bbox="-2 -108 1344 1019" underline-thickness="0" underline-position="10" unicode-range="U+0000-e886" /><missing-glyph horiz-adv-x="1024"  /><glyph glyph-name=".null" unicode="" d="" /><glyph glyph-name="nonmarkingreturn" unicode="" d="" /><glyph glyph-name="close" unicode="&#xe69a;" d="M177 79 q-6 -7 -6 -15.5 q0 -8.5 6.5 -14.5 q6.5 -6 15 -6 q8.5 0 14.5 6 l619 640 q6 7 6 15.5 q0 8.5 -6.5 14.5 q-6.5 6 -15 6 q-8.5 0 -15.5 -6 l-618 -640 ZM795 49 q7 -6 15.5 -6 q8.5 0 15 6 q6.5 6 6.5 14.5 q0 8.5 -6 15.5 l-619 640 q-6 6 -14.5 6 q-8.5 0 -15 -6 q-6.5 -6 -6.5 -14.5 q0 -8.5 6 -15.5 l618 -640 Z" /><glyph glyph-name="qqkongjian" unicode="&#xe80f;" d="M1019 483 q7 7 4 17 q-3 10 -14 11 l-347 30 l-135 321 q-5 9 -15 9 q-10 0 -15 -9 l-135 -321 l-347 -30 q-11 -1 -14 -11 q-3 -10 5 -17 l263 -228 l-79 -339 q-2 -10 6.5 -16 q8.5 -6 17.5 -1 l298 180 l298 -180 q4 -3 9 -3 q5 0 9 3 q8 7 6 17 l-62 268 q21 11 38 23 l18 13 q6 -4 -111 -24.5 q-117 -20.5 -425 -4.5 l304 221 q11 0 -54 10.5 q-65 10.5 -339 20.5 q-5 7 176.5 26 q181.5 19 382.5 -15 l-306 -219 q2 -1 84.5 -8.5 q82.5 -7.5 223.5 -7.5 l-9 36 l264 228 Z" /><glyph glyph-name="sousuo" unicode="&#xe651;" d="M966 -29 l-230 227 q46 51 71 116.5 q25 65.5 25 139.5 q-4 168 -114.5 277.5 q-110.5 109.5 -275.5 113.5 q-168 -5 -277.5 -115.5 q-109.5 -110.5 -113.5 -275.5 q5 -167 115.5 -276.5 q110.5 -109.5 275.5 -113.5 q74 0 139.5 25 q65.5 25 116.5 71 l230 -227 q8 -7 19.5 -7 q11.5 0 18.5 7 q10 10 10 20.5 q0 10.5 -10 17.5 ZM102 454 q4 143 99.5 239.5 q95.5 96.5 240.5 100.5 q145 -4 240 -99 q95 -95 99 -241 q-1 -67 -25 -127 q-24 -60 -68 -106 q-2 0 -3 -1.5 q-1 -1.5 -3 -1.5 l-3 -4 q-1 -1 -1 -3 q-46 -43 -106 -67.5 q-60 -24.5 -127 -25.5 q-146 2 -242.5 97.5 q-96.5 95.5 -100.5 238.5 Z" /><glyph glyph-name="dangdi" unicode="&#xe6d7;" d="M664 567 q-1 64 -43.5 106.5 q-42.5 42.5 -106.5 43.5 q-63 -1 -105.5 -43.5 q-42.5 -42.5 -44.5 -106.5 q2 -64 44.5 -106 q42.5 -42 105.5 -44 q64 2 106.5 44 q42.5 42 43.5 106 ZM404 567 q1 47 32.5 78 q31.5 31 77.5 32 q47 -1 78 -32 q31 -31 32 -78 q-1 -47 -32 -78 q-31 -31 -78 -32 q-46 1 -77.5 32 q-31.5 31 -32.5 78 ZM855 155 q-70 27 -175 41 q54 89 86.5 181 q32.5 92 33.5 166 q-3 119 -84 198.5 q-81 79.5 -203 82.5 q-121 -3 -202 -82.5 q-81 -79.5 -84 -198.5 q0 -54 20 -123 q20 -69 57 -145 q20 -41 43 -79 q-106 -13 -176 -41 q-92 -36 -92 -89 q0 -31 34.5 -57.5 q34.5 -26.5 100.5 -45.5 q61 -17 137.5 -26.5 q76.5 -9.5 161.5 -9.5 q85 0 161 9.5 q76 9.5 137 26.5 q67 19 101.5 45.5 q34.5 26.5 34.5 57.5 q0 53 -92 89 ZM267 543 q2 102 72 170 q70 68 174 71 q105 -3 174.5 -71 q69.5 -68 72.5 -170 q-1 -73 -36.5 -166.5 q-35.5 -93.5 -92.5 -183.5 q-3 -3 -4 -6 q-26 -39 -53.5 -72.5 q-27.5 -33.5 -56.5 -60.5 l-1 -1 q0 -2 -2.5 -2 q-2.5 0 -3.5 2 l-1 1 q-98 96 -168.5 238 q-70.5 142 -73.5 251 ZM800 1 q-58 -16 -131.5 -25 q-73.5 -9 -155.5 -9 q-82 0 -156 9 q-74 9 -132 26 q-58 17 -82.5 34.5 q-24.5 17.5 -23.5 29.5 q-1 22 60.5 49.5 q61.5 27.5 191.5 42.5 q53 -79 110 -133 q13 -14 32 -14 q19 0 32 14 q59 56 111 133 q129 -15 190 -42.5 q61 -27.5 61 -49.5 q1 -12 -24 -29.5 q-25 -17.5 -83 -35.5 Z" /><glyph glyph-name="zuirehotxiankuang" unicode="&#xe837;" d="M1216 704 l-960 0 q-54 -1 -90.5 -37.5 q-36.5 -36.5 -37.5 -90.5 l0 -448 q1 -54 37.5 -90.5 q36.5 -36.5 90.5 -37.5 l960 0 q54 1 90.5 37.5 q36.5 36.5 37.5 90.5 l0 448 q-1 54 -37.5 90.5 q-36.5 36.5 -90.5 37.5 ZM1280 128 q-1 -27 -19 -45 q-18 -18 -45 -19 l-960 0 q-27 1 -45 19 q-18 18 -19 45 l0 448 q1 27 19 45 q18 18 45 19 l960 0 q27 -1 45 -19 q18 -18 19 -45 l0 -448 ZM567 503 q-9 9 -23 9 q-14 0 -23 -9 q-9 -9 -9 -23 l0 -96 l-128 0 l0 96 q0 14 -9 23 q-9 9 -23 9 q-14 0 -23 -9 q-9 -9 -9 -23 l0 -256 q0 -14 9 -23 q9 -9 23 -9 q14 0 23 9 q9 9 9 23 l0 96 l128 0 l0 -96 q0 -14 9 -23 q9 -9 23 -9 q14 0 23 9 q9 9 9 23 l0 256 q0 14 -9 23 ZM1120 512 l-128 0 q-14 0 -23 -9 q-9 -9 -9 -23 q0 -14 9 -23 q9 -9 23 -9 l32 0 l0 -224 q0 -14 9 -23 q9 -9 23 -9 q14 0 23 9 q9 9 9 23 l0 224 l32 0 q14 0 23 9 q9 9 9 23 q0 14 -9 23 q-9 9 -23 9 ZM768 512 q-54 -1 -90.5 -37.5 q-36.5 -36.5 -37.5 -90.5 l0 -64 q1 -54 37.5 -90.5 q36.5 -36.5 90.5 -37.5 q54 1 90.5 37.5 q36.5 36.5 37.5 90.5 l0 64 q-1 54 -37.5 90.5 q-36.5 36.5 -90.5 37.5 ZM832 320 q-1 -27 -19 -45 q-18 -18 -45 -18 q-27 0 -45 18 q-18 18 -19 45 l0 64 q1 27 19 45 q18 18 45 18 q27 0 45 -18 q18 -18 19 -45 l0 -64 Z" /><glyph glyph-name="douban" unicode="&#xe64d;" d="M745 588 q-115 1 -231 0 q-117 1 -235 0 q-58 0 -86 -28.5 q-28 -28.5 -29 -86.5 q-1 -52 0.5 -103.5 q1.5 -51.5 29 -79.5 q27.5 -28 77.5 -29 q241 -1 481 0 q50 1 77.5 28 q27.5 27 29.5 76 q3 56 1 113 q-3 110 -115 110 ZM777 394 q0 -27 -11.5 -39 q-11.5 -12 -39.5 -12 q-76 -2 -152 -1 l-64 0 l-201 0 q-38 0 -51 13 q-13 13 -12 52 q-1 27 0 54 q2 23 12.5 34 q10.5 11 33.5 11 q219 2 437 0 q26 0 36.5 -11.5 q10.5 -11.5 11.5 -36.5 q2 -32 0 -64 ZM861 76 l-117 0 q-15 1 -34 5 l20 39 l20 34 q7 13 7 25.5 q0 12.5 -9 24.5 q-16 18 -35 15.5 q-19 -2.5 -34 -25.5 q-29 -45 -54 -93 q-7 -13 -17 -19.5 q-10 -6.5 -26 -5.5 q-71 1 -142 0 q-27 -1 -39 23 q-25 45 -52 89 q-14 23 -28.5 29.5 q-14.5 6.5 -30.5 -2.5 q-38 -19 -13 -67 q8 -15 18 -33 l23 -39 l-103 0 q-35 1 -69 -1 q-41 -3 -43 -38 q-1 -18 10.5 -29 q11.5 -11 33.5 -13 q17 -1 34 0 l678 0 q62 0 62 39 q2 41 -60 42 ZM207 692 l305 0 l196 0 q64 -1 128 1 q22 1 33 12 q11 11 10 29 q-2 34 -42 39 q-10 1 -20 0 l-609 0 q-66 0 -63 -43 q0 -20 15 -29 q15 -9 47 -9 Z" /><glyph glyph-name="github" unicode="&#xe718;" d="M292 764 q101 59 220 59 q119 0 220 -59 q101 -59 160 -160 q59 -101 59 -220 q0 -143 -84 -258 q-84 -115 -216 -159 q-16 -2 -23 4.5 q-7 6.5 -7 17.5 l0 120 q0 56 -30 81 q33 4 59 10.5 q26 6.5 53.5 22 q27.5 15.5 46 38 q18.5 22.5 30.5 60 q12 37.5 12 86.5 q0 68 -45 118 q21 52 -5 116 q-16 5 -46 -6.5 q-30 -11.5 -53 -24.5 l-21 -14 q-54 15 -110.5 15 q-56.5 0 -109.5 -15 q-9 6 -24 15.5 q-15 9.5 -47.5 22 q-32.5 12.5 -48.5 7.5 q-26 -64 -5 -116 q-45 -50 -45 -118 q0 -49 11.5 -86 q11.5 -37 30 -60 q18.5 -23 46 -38.5 q27.5 -15.5 53.5 -22 q26 -6.5 59 -10.5 q-22 -20 -28 -59 q-12 -5 -26 -8 q-14 -3 -32.5 -3 q-18.5 0 -37 12.5 q-18.5 12.5 -32.5 35.5 q-10 18 -27 29.5 q-17 11.5 -29 14.5 l-11 1 q-12 0 -16.5 -2.5 q-4.5 -2.5 -3 -6.5 q1.5 -4 5 -8 q3.5 -4 7.5 -7 l4 -3 q13 -5 25 -21 q12 -16 18 -29 l6 -14 q7 -21 25 -34.5 q18 -13.5 38.5 -17.5 q20.5 -4 39.5 -4 q19 0 32 2 l13 2 l0 -81 q0 -11 -7 -17.5 q-7 -6.5 -23 -3.5 q-132 44 -216 158.5 q-84 114.5 -84 257.5 q0 120 59 220.5 q59 100.5 160 159.5 ZM239 193 q2 4 -3.5 6 q-5.5 2 -7.5 -1.5 q-2 -3.5 3.5 -6.5 q5.5 -3 7.5 2 ZM257 173 q4 3 -1.5 8.5 q-5.5 5.5 -9 2.5 q-3.5 -3 2 -9 q5.5 -6 8.5 -2 ZM274 147 q5 4 0.5 11.5 q-4.5 7.5 -10 4 q-5.5 -3.5 0 -11 q5.5 -7.5 9.5 -4.5 ZM298 123 q5 5 -2 11.5 q-7 6.5 -12 1.5 q-5 -5 2.5 -11.5 q7.5 -6.5 11.5 -1.5 ZM331 109 q2 6 -7 9 q-9 3 -11.5 -3.5 q-2.5 -6.5 7 -9.5 q9.5 -3 11.5 4 ZM367 106 q0 8 -9.5 7.5 q-9.5 -0.5 -9.5 -7.5 q0 -7 9.5 -6.5 q9.5 0.5 9.5 6.5 ZM392 104 q9 2 8 8 q-1 6 -10 4.5 q-9 -1.5 -8 -8 q1 -6.5 10 -4.5 Z" /><glyph glyph-name="weixin" unicode="&#xe62b;" d="M693 559 q17 0 34 -2 q-26 111 -126 180.5 q-100 69.5 -236 71.5 q-151 -3 -252.5 -88.5 q-101.5 -85.5 -105.5 -216.5 q1 -74 38.5 -134.5 q37.5 -60.5 104.5 -107.5 l-35 -108 l125 63 q33 -7 62.5 -12.5 q29.5 -5.5 62.5 -5.5 q17 0 34 1 q-11 36 -11 75 q3 121 88.5 201 q85.5 80 216.5 83 ZM497 664 q24 -1 39.5 -16.5 q15.5 -15.5 15.5 -39 q0 -23.5 -15.5 -39.5 q-15.5 -16 -39 -16 q-23.5 0 -39 16 q-15.5 16 -15.5 39.5 q0 23.5 15.5 39 q15.5 15.5 38.5 16.5 ZM247 552 q-24 0 -39.5 15.5 q-15.5 15.5 -15.5 39.5 q0 24 15.5 39.5 q15.5 15.5 39 15.5 q23.5 0 39 -15.5 q15.5 -15.5 15.5 -39.5 q0 -24 -15.5 -39.5 q-15.5 -15.5 -38.5 -15.5 ZM1017 279 q-4 110 -91.5 183.5 q-87.5 73.5 -212.5 76.5 q-131 -3 -216.5 -76.5 q-85.5 -73.5 -88.5 -183.5 q3 -111 88.5 -184.5 q85.5 -73.5 216.5 -76.5 q27 1 54 6 q27 5 53 12 l99 -53 l-27 89 q55 41 89.5 93.5 q34.5 52.5 35.5 113.5 ZM647 330 q-11 -11 -28 -11 q-17 0 -28 11 q-11 11 -11 28 q0 17 11 28 q11 11 28 11 q17 0 28 -11 q11 -11 11 -28 q0 -17 -11 -28 ZM816 316 q-17 1 -28 12 q-11 11 -11 28 q0 17 11 28 q11 11 28 11 q17 0 28 -11 q11 -11 11 -28 q0 -17 -11 -28 q-11 -11 -28 -12 Z" /><glyph glyph-name="google" unicode="&#xe692;" d="M511 -61 q-190 5 -316 131.5 q-126 126.5 -131 315.5 q5 190 131.5 316 q126.5 126 315.5 131 q76 0 145.5 -24 q69.5 -24 128.5 -70 q11 -9 12.5 -22.5 q1.5 -13.5 -8.5 -24.5 l-84 -92 q-9 -9 -20.5 -10.5 q-11.5 -1.5 -21.5 5.5 q-33 24 -71.5 36.5 q-38.5 12.5 -80.5 12.5 q-109 -2 -182 -75 q-73 -73 -76 -183 q3 -109 76.5 -182 q73.5 -73 182.5 -76 q83 2 146.5 46.5 q63.5 44.5 92.5 117.5 l-208 0 q-13 0 -22 9 q-9 9 -10 23 l0 125 q1 13 10 22 q9 9 22 10 l383 0 q14 -1 23 -10 q9 -9 9 -22 l0 -63 q-5 -189 -131 -315.5 q-126 -126.5 -316 -131.5 Z" /><glyph glyph-name="weibo" unicode="&#xe608;" d="M727 425 q-24 6 -22 15 q2 9 4.5 11 q2.5 2 11 32.5 q8.5 30.5 -18.5 62.5 q-44 32 -105.5 15.5 q-61.5 -16.5 -67.5 -21.5 q-34 -10 -34.5 2.5 q-0.5 12.5 6.5 39.5 q3 36 -23 67 q-26 31 -117 4 q-96 -40 -162.5 -111 q-66.5 -71 -69.5 -79 q-53 -75 -60.5 -123.5 q-7.5 -48.5 -4.5 -50.5 q21 -123 124.5 -171 q103.5 -48 215.5 -53 q116 -9 236 36 q120 45 171 140 q38 94 -6.5 137 q-44.5 43 -77.5 47 ZM415 112 q-113 -4 -188 42 q-75 46 -78 120 q3 74 78 124 q75 50 188 57 q112 4 187 -36.5 q75 -40.5 78 -113.5 q-3 -74 -78 -130 q-75 -56 -187 -63 ZM385 391 q-105 -21 -120.5 -83 q-15.5 -62 -9.5 -70 q-1 -2 4.5 -24.5 q5.5 -22.5 34.5 -40.5 q67 -33 126 -19 q59 14 94 58 q36 50 8 117 q-28 67 -137 62 ZM348 200 q-21 -2 -35 8 q-14 10 -14 27.5 q0 17.5 13 31.5 q13 14 34 17 q24 2 37.5 -9 q13.5 -11 13.5 -28.5 q0 -17.5 -14 -30.5 q-14 -13 -35 -16 ZM435 273 q-7 -5 -14.5 -4.5 q-7.5 0.5 -11 7 q-3.5 6.5 -2 14.5 q1.5 8 9 13.5 q7.5 5.5 15 4.5 q7.5 -1 11 -7.5 q3.5 -6.5 1.5 -14 q-2 -7.5 -9 -13.5 ZM781 491 q7 -7 17 -7 q10 0 16.5 6 q6.5 6 7.5 14 l0 3 q4 113 -59 126 q-63 13 -73 6 q-10 0 -17 -7 q-7 -7 -7 -17 q0 -10 7 -17 q7 -7 17 -7 q76 10 82.5 -33 q6.5 -43 1.5 -50 q0 -10 7 -17 ZM781 763 q-40 8 -74 5 q-34 -3 -47 -6 l-4 -2 q-11 -4 -18 -13 q-7 -9 -8 -21 q1 -14 11 -24 q10 -10 25 -11 l11 2 q10 2 20 6 q15 6 72.5 -7.5 q57.5 -13.5 101.5 -77.5 q21 -49 18 -79 q-3 -30 -7 -36 l-3 -11 q-3 -10 -3 -23.5 q0 -13.5 9.5 -22 q9.5 -8.5 24.5 -8.5 q13 -1 22 4.5 q9 5.5 12 24.5 l0 0 q37 141 -24.5 213 q-61.5 72 -138.5 87 ZM781 763 l0 0 Z" /><glyph glyph-name="time-circle" unicode="&#xe784;" d="M512 832 q-190 -5 -316.5 -131.5 q-126.5 -126.5 -131.5 -316.5 q5 -190 131.5 -316.5 q126.5 -126.5 316.5 -131.5 q190 5 316.5 131.5 q126.5 126.5 131.5 316.5 q-5 190 -131.5 316.5 q-126.5 126.5 -316.5 131.5 ZM512 12 q-158 4 -263 109 q-105 105 -109 263 q4 158 109 263 q105 105 263 109 q158 -4 263 -109 q105 -105 109 -263 q-4 -158 -109 -263 q-105 -105 -263 -109 ZM687 257 l-143 104 l0 247 q-1 7 -8 8 l-48 0 q-7 -1 -8 -8 l0 -275 q0 -4 3 -7 l166 -120 q6 -4 11 1 l29 39 q3 7 -2 11 Z" /><glyph glyph-name="eye1" unicode="&#xe78f;" d="M942 410 q-142 300 -430 300 q-288 0 -430 -300 q-12 -26 0 -52 q142 -300 430 -300 q288 0 430 300 q12 26 0 52 ZM723 192.5 q-90 -62.5 -211 -62.5 q-121 0 -210.5 62.5 q-89.5 62.5 -152.5 191.5 q63 129 152.5 191.5 q89.5 62.5 210.5 62.5 q121 0 210.5 -62.5 q89.5 -62.5 152.5 -191.5 q-62 -129 -152 -191.5 ZM508 560 q-75 -2 -124.5 -51.5 q-49.5 -49.5 -51.5 -124.5 q2 -75 51.5 -124.5 q49.5 -49.5 124.5 -51.5 q75 2 124.5 51.5 q49.5 49.5 51.5 124.5 q-2 75 -51.5 124.5 q-49.5 49.5 -124.5 51.5 ZM508 272 q-48 1 -79.5 32.5 q-31.5 31.5 -32.5 79.5 q1 48 32.5 79.5 q31.5 31.5 79.5 32.5 q48 -1 79.5 -32.5 q31.5 -31.5 32.5 -79.5 q-1 -48 -32.5 -79.5 q-31.5 -31.5 -79.5 -32.5 Z" /><glyph glyph-name="folder" unicode="&#xe7d1;" d="M880 598 l-359 0 l-117 112 q-3 2 -6 2 l-254 0 q-14 0 -23 -9 q-9 -9 -9 -23 l0 -592 q0 -14 9 -23 q9 -9 23 -9 l736 0 q14 0 23 9 q9 9 9 23 l0 478 q0 13 -9 22 q-9 9 -23 10 ZM840 128 l-656 0 l0 512 l189 0 l119 -114 l348 0 l0 -398 Z" /><glyph glyph-name="tag1" unicode="&#xe7e4;" d="M938 437 l-30 313 q-1 12 -9.5 20.5 q-8.5 8.5 -20.5 9.5 l-313 30 q-5 0 -8 -3 l-468 -468 q-6 -7 0 -14 l364 -364 q3 -3 7 -3 q4 0 7 3 l468 468 q3 4 3 8 ZM460 61 l-271 271 l400 399 l247 -23 l23 -247 l-399 -400 ZM680 640 q-37 -1 -62 -26 q-25 -25 -25 -62 q0 -37 25 -62 q25 -25 62 -25 q37 0 62 25 q25 25 25 62 q0 37 -25 62 q-25 25 -62 26 ZM703 529 q-9 -9 -23 -9 q-14 0 -23 9 q-9 9 -9 23 q0 14 9 23 q9 9 23 9 q14 0 23 -9 q9 -9 9 -23 q0 -14 -9 -23 Z" /><glyph glyph-name="share" unicode="&#xe7e7;" d="M752 232 q-44 -1 -75 -27 l-208 150 q3 14 3 29 q0 15 -3 29 l208 150 q31 -26 75 -27 q51 1 85 35 q34 34 35 85 q-1 51 -35 85 q-34 34 -85 35 q-51 -1 -85 -35 q-34 -34 -35 -85 q0 -17 5 -33 l-197 -143 q-22 30 -55 47 q-33 17 -73 17 q-68 -2 -113 -47 q-45 -45 -47 -113 q2 -68 47 -113 q45 -45 113 -47 q40 0 73 17 q33 17 55 47 l197 -143 q-5 -16 -5 -33 q1 -51 35 -85 q34 -34 85 -35 q51 1 85 35 q34 34 35 85 q-1 51 -35 85 q-34 34 -85 35 ZM752 708 q22 -1 36.5 -15.5 q14.5 -14.5 14.5 -36.5 q0 -22 -14.5 -36.5 q-14.5 -14.5 -36.5 -14.5 q-22 0 -36.5 14.5 q-14.5 14.5 -14.5 36.5 q0 22 14.5 36.5 q14.5 14.5 36.5 15.5 ZM312 296 q-37 1 -62 26 q-25 25 -25 62 q0 37 25 62 q25 25 62 25 q37 0 62 -25 q25 -25 25 -62 q0 -37 -25 -62 q-25 -25 -62 -26 ZM752 60 q-22 1 -36.5 15.5 q-14.5 14.5 -14.5 36.5 q0 22 14.5 36.5 q14.5 14.5 36.5 14.5 q22 0 36.5 -14.5 q14.5 -14.5 14.5 -36.5 q0 -22 -14.5 -36.5 q-14.5 -14.5 -36.5 -15.5 Z" /><glyph glyph-name="right" unicode="&#xe7eb;" d="M766 409 l-451 352 q-4 3 -8.5 1 q-4.5 -2 -4.5 -7 l0 -77 q0 -8 6 -13 l360 -281 l-360 -281 q-6 -5 -6 -13 l0 -77 q0 -5 4.5 -7 q4.5 -2 8.5 1 l451 352 q12 10 12 25 q0 15 -12 25 Z" /><glyph glyph-name="left" unicode="&#xe7ec;" d="M724 678 l0 77 q0 5 -4.5 7 q-4.5 2 -8.5 -1 l-451 -352 q-12 -10 -12 -25 q0 -15 12 -25 l451 -352 q4 -3 8.5 -1 q4.5 2 4.5 7 l0 77 q0 8 -6 13 l-360 281 l360 281 q6 5 6 13 Z" /><glyph glyph-name="arrowup" unicode="&#xe7ee;" d="M868 351 l-332 382 q-10 11 -24 11 q-14 0 -24 -11 l-332 -382 q-3 -5 -1 -9 q2 -4 7 -5 l81 0 q7 0 12 6 l219 252 l0 -563 q1 -7 8 -8 l60 0 q7 1 8 8 l0 563 l219 -252 q5 -6 12 -6 l81 0 q5 1 7 5 q2 4 -1 9 Z" /><glyph glyph-name="menu" unicode="&#xe7f4;" d="M904 736 l-784 0 q-7 -1 -8 -8 l0 -64 q1 -7 8 -8 l784 0 q7 1 8 8 l0 64 q-1 7 -8 8 ZM904 112 l-784 0 q-7 -1 -8 -8 l0 -64 q1 -7 8 -8 l784 0 q7 1 8 8 l0 64 q-1 7 -8 8 ZM904 424 l-784 0 q-7 -1 -8 -8 l0 -64 q1 -7 8 -8 l784 0 q7 1 8 8 l0 64 q-1 7 -8 8 Z" /><glyph glyph-name="alipay" unicode="&#xe87c;" d="M789 286 q-29 10 -67 24 l-81 29 q52 91 80 204 l-190 0 l0 69 l233 0 l0 38 l-233 0 l0 114 l-96 0 q-12 -1 -14.5 -8 q-2.5 -7 -2.5 -8 l0 -98 l-236 0 l0 -39 l237 0 l0 -68 l-196 0 l0 -38 l379 0 q-21 -72 -55 -133 q-94 31 -183 48.5 q-89 17.5 -153 4.5 q-39 -10 -65 -26 q-26 -16 -41 -35 q-68 -90 -23.5 -181 q44.5 -91 190.5 -98 q86 0 165.5 44.5 q79.5 44.5 143.5 123.5 q107 -50 237 -105.5 q130 -55.5 142 -60.5 l0 150 q2 -2 -33.5 6.5 q-35.5 8.5 -137.5 42.5 ZM254 149 q-113 6 -144.5 68 q-31.5 62 23.5 116 q20 16 47.5 24.5 q27.5 8.5 47.5 10.5 q66 5 131.5 -16 q65.5 -21 138.5 -57 q-53 -68 -115.5 -106.5 q-62.5 -38.5 -128.5 -39.5 Z" /><glyph glyph-name="zhihu" unicode="&#xe87d;" d="M565 666 l0 -573 l60 0 l25 -71 l106 71 l132 0 l0 573 l-323 0 ZM812 169 l-59 0 l-76 -51 l-17 51 l-18 0 l0 419 l170 0 l0 -419 ZM526 409 l-133 0 q3 69 7 173 l131 0 l-1 17 q0 9 -1.5 20.5 q-1.5 11.5 -6 22.5 q-4.5 11 -15.5 12 l-219 0 q3 17 11 45.5 q8 28.5 18 48.5 l7 11 l-13 1 q-1 0 -13 -1.5 q-12 -1.5 -29 -9.5 q-26 -15 -39.5 -38.5 q-13.5 -23.5 -18.5 -45.5 q-15 -55 -31 -92 q-16 -37 -25 -54 q-5 -9 -6 -13 q-3 -7 3 -13 q9 -6 22.5 -2 q13.5 4 15.5 5 l2 1 q12 4 34.5 22.5 q22.5 18.5 35.5 62.5 l57 0 l1 -86 q2 -57 2 -87 l-141 0 l-2 -1 q-18 -15 -24.5 -38.5 q-6.5 -23.5 -6.5 -27.5 l-2 -9 l167 0 q-9 -58 -18.5 -87.5 q-9.5 -29.5 -15.5 -39.5 l-10 -21 q-14 -31 -40 -67.5 q-26 -36.5 -87 -86.5 q-6 -4 -4 -13.5 q2 -9.5 24 -8.5 q8 -1 20 1 q37 1 72.5 18.5 q35.5 17.5 62.5 68.5 q25 53 44 109 l136 -160 l5 12 q2 3 8 30.5 q6 27.5 -3 65.5 l0 2 l-108 123 l-22 -17 q9 39 12 71 l159 0 l0 8 q-1 30 -9.5 47 q-8.5 17 -9.5 18 l-3 3 Z" /><glyph glyph-name="facebook" unicode="&#xe87e;" d="M880 784 l-736 0 q-14 0 -23 -9 q-9 -9 -9 -23 l0 -736 q0 -14 9 -23 q9 -9 23 -9 l736 0 q14 0 23 9 q9 9 9 23 l0 736 q0 14 -9 23 q-9 9 -23 9 ZM848 48 l-184 0 l0 246 l104 0 l16 121 l-120 0 l0 77 q-1 26 11 42 q12 16 49 16 l64 0 l0 108 q-9 2 -34.5 3.5 q-25.5 1.5 -59.5 1.5 q-70 0 -112 -41 q-42 -41 -43 -118 l0 -89 l-104 0 l0 -121 l104 0 l0 -246 l-363 0 l0 672 l672 0 l0 -672 Z" /><glyph glyph-name="instagram" unicode="&#xe87f;" d="M512 589 q-87 -2 -145 -60 q-58 -58 -60 -145 q2 -87 60 -145 q58 -58 145 -60 q87 2 145 60 q58 58 60 145 q-2 87 -60 145 q-58 58 -145 60 ZM512 251 q-56 1 -94 39 q-38 38 -39 94 q1 57 39 94.5 q38 37.5 94 38.5 q57 -1 94.5 -39 q37.5 -38 38.5 -94 q-1 -56 -38.5 -94 q-37.5 -38 -94.5 -39 ZM726 645 q-21 0 -34.5 -13.5 q-13.5 -13.5 -13.5 -34 q0 -20.5 13.5 -34 q13.5 -13.5 34 -13.5 q20.5 0 34 13.5 q13.5 13.5 13.5 34 q0 20.5 -13.5 34 q-13.5 13.5 -33.5 13.5 ZM912 384 q1 83 -3 165 q-1 48 -15.5 90 q-14.5 42 -49.5 77 q-35 35 -77 49 q-42 14 -90 16 q-82 4 -164.5 4 q-82.5 0 -165.5 -4 q-48 -2 -90 -16 q-42 -14 -77 -49 q-35 -35 -49 -77 q-14 -42 -16 -90 q-4 -83 -4 -165 q0 -82 4 -165 q2 -48 16 -90 q14 -42 49 -77 q35 -35 77 -49 q42 -14 90 -16 q83 -4 165.5 -4 q82.5 0 164.5 4 q48 2 90.5 16 q42.5 14 77 49 q34.5 35 49 77 q14.5 42 15.5 90 q4 82 3 165 ZM824 148 q-6 -13 -13 -24 q-7 -11 -17.5 -21.5 q-10.5 -10.5 -21.5 -17.5 q-11 -7 -24 -13 q-44 -15 -116 -16 q-72 -1 -120 -1 q-48 0 -120 1 q-72 1 -116 16 q-13 5 -24 12.5 q-11 7.5 -21.5 18 q-10.5 10.5 -18 21.5 q-7.5 11 -12.5 24 q-15 44 -16 116 q-1 72 -1 120 q0 48 1 120 q1 72 16 116 q5 13 12.5 24 q7.5 11 18 21.5 q10.5 10.5 21.5 18 q11 7.5 24 12.5 q44 15 116 16 q72 1 120 1 q48 0 120 -1 q72 -1 116 -16 q13 -5 24 -12.5 q11 -7.5 21.5 -18 q10.5 -10.5 18 -21.5 q7.5 -11 12.5 -24 q15 -44 16 -116 q1 -72 1 -120 q0 -48 -1 -120 q-1 -72 -16 -116 Z" /><glyph glyph-name="QQ" unicode="&#xe882;" d="M825 283 q-12 37 -27 75 l-36 90 q4 143 -57 237.5 q-61 94.5 -193 98.5 q-135 -4 -195 -99.5 q-60 -95.5 -56 -236.5 l-36 -90 q-15 -38 -27 -75 q-24 -82 -23 -119 q1 -37 9 -37 q16 4 41.5 40.5 q25.5 36.5 28.5 41.5 q0 -37 19.5 -80 q19.5 -43 60.5 -79 q-24 -6 -51.5 -20.5 q-27.5 -14.5 -20.5 -32.5 q18 -14 109 -13 q91 1 141 6 q49 -5 140 -6 q91 -1 109 13 q7 18 -21 32.5 q-28 14.5 -51 20.5 q41 36 60.5 79 q19.5 43 19.5 80 q3 -5 28.5 -41.5 q25.5 -36.5 41.5 -40.5 q8 0 9 37 q1 37 -23 119 Z" /><glyph glyph-name="twitter" unicode="&#xe883;" d="M928 642 q-46 -21 -98 -27 q27 16 46 40 q19 24 29 54 q-50 -29 -108 -41 q-24 25 -56 39.5 q-32 14.5 -69 14.5 q-73 -2 -121 -50 q-48 -48 -49 -121 q0 -20 4 -39 q-107 7 -197.5 53.5 q-90.5 46.5 -154.5 125.5 q-23 -39 -23 -86 q0 -45 20.5 -82 q20.5 -37 55.5 -60 q-43 2 -77 21 l0 -2 q1 -63 39 -108.5 q38 -45.5 98 -58.5 q-22 -6 -45 -6 q-17 0 -33 3 q18 -52 60.5 -84.5 q42.5 -32.5 99.5 -34.5 q-44 -34 -98 -53 q-54 -19 -114 -20 q-21 0 -41 3 q57 -37 123 -57 q66 -20 139 -20 q236 9 360 158 q124 149 125 327 l0 23 q50 36 85 88 Z" /><glyph glyph-name="icon-test" unicode="&#xe673;" d="M784 159 l0 0 q-15 0 -28 -4 q-5 -2 -10.5 0 q-5.5 2 -9.5 6 l-366 366 q-5 4 -6 10.5 q-1 6.5 2 11.5 q11 28 11 60 l0 0 q-1 52 -30 90 l-5 7 l-10 11 q-45 45 -108 45 q-13 0 -24 -2 l0 0 l-8 -2 l64 -23 q5 -2 8.5 -6.5 q3.5 -4.5 4.5 -9.5 l1 -12 l1 -25 l-81 -115 l-115 41 l47 -77 l5 -4 q44 -45 107 -45 q32 0 60 11 q6 3 12 1.5 q6 -1.5 10 -5.5 l367 -366 q4 -4 5 -9.5 q1 -5.5 0 -10.5 q-4 -13 -3 -28 l0 0 q0 -45 32 -77 q32 -32 77 -33 l3 1 q44 0 75 31 q11 11 18 24 q3 12 3 26 l0 2 q0 45 -32 77 q-32 32 -77 33 ZM850 130 q23 -23 23 -56 l0 0 q0 -8 -2 -16 l-91 -35 l-35 36 q26 94 49 95 q33 0 56 -24 ZM807 97 q-16 -1 -27 -12 q-11 -11 -11 -26 l-1 -1 q1 -15 12 -26.5 q11 -11.5 26 -11.5 l1 1 q15 0 26 11 q11 11 12 27 l0 0 q0 16 -11 27 q-11 11 -27 11 l0 0 ZM248 708 q-1 -5 0 -10 l0 0 q0 -64 -45 -108 l-114 41 q-7 2 -14.5 -0.5 q-7.5 -2.5 -11 -8.5 q-3.5 -6 -2.5 -14 q9 -54 48 -96 l6 -7 q57 -56 137 -57 q34 0 63 10 l349 -349 q-3 -13 -2 -27 l0 0 q0 -61 44 -105.5 q44 -44.5 106 -44.5 l3 0 q60 0 103.5 43.5 q43.5 43.5 44.5 103.5 l0 4 q0 62 -44.5 106 q-44.5 44 -106.5 44 l1 0 q-15 1 -27 -2 l-349 349 q9 29 9 63 q0 80 -56.5 136.5 q-56.5 56.5 -136.5 56.5 q-17 0 -31 -2 l-1 0 q-57 -9 -99 -48 q-6 -5 -7 -12.5 q-1 -7.5 3 -13.5 q4 -6 11 -9 l119 -43 ZM283 736 q-4 5 -9 7 l-95 34 q22 12 49 16 l1 0 q11 2 23 2 q64 0 108.5 -44.5 q44.5 -44.5 44.5 -108.5 l0 0 q0 -32 -11 -59 q-3 -6 -1.5 -12 q1.5 -6 5.5 -11 l367 -366 q3 -4 8.5 -5.5 q5.5 -1.5 10.5 0.5 q13 3 28 3 l1 0 q44 0 76 -32 q32 -32 33 -77 l0 -3 q-1 -28 -14 -51 q-7 -13 -18 -24 q-31 -31 -76 -32 l-2 0 q-45 0 -77 32 q-32 32 -32 77 l0 1 q-1 14 3 27 q2 5 0.5 10.5 q-1.5 5.5 -5.5 9.5 l-366 367 q-5 4 -11.5 5 q-6.5 1 -11.5 -1 q-28 -12 -60 -11 q-63 0 -107 44 l-6 6 q-16 18 -26 38 l88 -32 q5 -2 10.5 -1 q5.5 1 9.5 5 l12 10 q23 24 37 52 q19 39 19 85 l0 1 q0 14 -2 28 q-1 5 -4 10 ZM812 161.5 q-33 -0.5 -56 -23.5 q-23 -23 -23.5 -56 q-0.5 -33 23 -56 q23.5 -23 56.5 -23 q33 0 55.5 23 q22.5 23 23.5 56 l0 0 q0 33 -23 56.5 q-23 23.5 -56 23 ZM812 120 l1 0 q15 0 26 -11 q11 -11 11 -26 l0 -1 q-1 -16 -12 -27 q-11 -11 -26 -11 l-1 0 q-15 0 -26 11 q-11 11 -12 27 l1 0 q0 15 11 26.5 q11 11.5 27 11.5 Z" /><glyph glyph-name="icon-test1" unicode="&#xe676;" d="M589 328 l-1 0 q-78 77 -157 162 l-79 -80 q84 -78 162 -156 q180 -182 327 -359 l106 106 q-178 146 -358 327 ZM416 533 l111 155 l-92 92 l-218 -122 l-148 -257 l84 -86 l156 111 l107 107 ZM447 875 q-8 1 -13 -2 l-257 -147 q-5 -2 -7 -7 l-147 -257 q-3 -5 -2.5 -12 q0.5 -7 6.5 -13 l115 -115 q5 -5 12.5 -5.5 q7.5 -0.5 13.5 3.5 l158 112 q85 -79 164 -158 q188 -189 339 -374 q3 -5 8.5 -6.5 q5.5 -1.5 11.5 -0.5 q6 1 10 5 l138 139 q5 4 6 10 q1 6 -1 11.5 q-2 5.5 -6 9.5 q-185 150 -373 338 q-80 79 -159 164 l112 157 q4 7 3.5 14.5 q-0.5 7.5 -5.5 12.5 l-115 115 q-6 6 -12 6 ZM594 377 l0 0 q180 -181 358 -327 l-106 -106 q-146 178 -327 359 q-77 78 -162 157 l79 79 q79 -85 158 -162 ZM159 364 l-92 92 l135 237 l238 136 l92 -92 l-111 -155 l-107 -107 l-155 -111 Z" /><glyph glyph-name="rss" unicode="&#xe6bb;" d="M912 22 q1 -15 -10 -26.5 q-11 -11.5 -27 -11.5 l-81 0 q-15 0 -25.5 10 q-10.5 10 -10.5 24 q-7 122 -57.5 232 q-50.5 110 -131.5 191 q-81 81 -191 131.5 q-110 50.5 -232 58.5 q-14 0 -24 10.5 q-10 10.5 -10 24.5 l0 82 q0 16 11 26 q11 10 25 10 l2 0 q149 -7 285 -68 q136 -61 242 -167 q106 -106 166.5 -242 q60.5 -136 68.5 -285 ZM621 23 q1 -16 -9.5 -27.5 q-10.5 -11.5 -26.5 -11.5 l-77 0 q-14 0 -24 9.5 q-10 9.5 -12 23.5 q-12 130 -104.5 222.5 q-92.5 92.5 -222.5 104.5 q-14 1 -23.5 11.5 q-9.5 10.5 -8.5 24.5 l0 76 q0 17 11 27 q10 10 25 10 l3 0 q90 -8 173 -46.5 q83 -38.5 147.5 -103 q64.5 -64.5 103 -147 q38.5 -82.5 45.5 -173.5 ZM299 170 q31 -31 31 -76.5 q0 -45.5 -31.5 -77.5 q-31.5 -32 -77 -32 q-45.5 0 -77.5 31.5 q-32 31.5 -32 77 q0 45.5 32 77.5 q32 32 77.5 32 q45.5 0 77.5 -32 Z" /><glyph glyph-name="menu-" unicode="&#xe600;" d="M512 469 q36 -1 60 -25 q24 -24 24 -60 q0 -36 -24 -60 q-24 -24 -60 -24 q-36 0 -60 24 q-24 24 -24 60 q0 36 24 60 q24 24 60 25 ZM512 597 q-36 1 -60 25.5 q-24 24.5 -24 60.5 q0 36 24 60 q24 24 60 24 q36 0 60 -24 q24 -24 24 -60 q0 -36 -24 -60.5 q-24 -24.5 -60 -25.5 ZM512 171 q36 -1 60 -25.5 q24 -24.5 24 -60.5 q0 -36 -24 -60 q-24 -24 -60 -24 q-36 0 -60 24 q-24 24 -24 60 q0 36 24 60.5 q24 24.5 60 25.5 Z" /><glyph glyph-name="cloudmusic" unicode="&#xe884;" d="M775 900 q-45 19 -92 6 q-47 -13 -80 -53 q-13 -14 -15 -33 q-3 -18 0 -67 l4 -76 l-31 -13 q-66 -30 -100 -82 q-34 -53 -34 -123 q2 -105 60 -159 q56 -55 143 -34 q52 15 85 61 q35 47 36 101 q0 8 -4.5 32.5 q-4.5 24.5 -12.5 52.5 q-8 29 -11 50 q-4 21 -2 24 q13 7 52 -21 q38 -28 60 -60 q16 -25 22 -47 q6 -24 7 -72 q4 -53 0 -75 q-4 -23 -22 -59 q-75 -148 -250 -148 q-61 0 -104 17 q-44 16 -87 58 q-55 50 -83 112 q-27 63 -27 136 q0 89 37 157 q36 68 115 124 q56 39 70 62 q13 23 -9 45 q-7 6 -15 11 q-10 5 -19 5 q-39 -4 -109 -63 q-69 -60 -109 -123 q-100 -192 -22 -383 q77 -193 278 -250 q47 -10 111 -6 q65 4 108 20 q76 30 134 86 q58 56 82 122 q17 54 15 134 q-1 80 -20 133 q-29 74 -79.5 119.5 q-50.5 45.5 -124.5 62.5 q-28 7 -36 14 q-10 8 -17 32 q-6 20 -5 32 q1 12 9 25 q12 23 29 25 q18 3 49 -14 q14 -8 28 -13 q13 -5 18 -5 q13 1 26 17 q13 15 14 32 q-1 16 -23 37.5 q-22 21.5 -49 33.5 ZM572 563 q32 22 44 13 q13 -10 24 -64 q7 -28 11 -54 q4 -27 4 -38 q-2 -34 -33 -53 q-31 -19 -62 -5 q-17 9 -30 37 q-13 27 -14 53 q1 32 18 64 q16 32 38 47 Z" /><glyph glyph-name="bangumi" unicode="&#xe885;" d="M972 602 l-8 3 l-407 -1 q-248 1 -332 0 q-83 0 -79 -1 q-11 -5 -19 -12 q-8 -9 -12 -20 q-2 1 -3 -35 l0 -192 l0 -183 q1 -45 2 -45 q3 -11 12.5 -20.5 q9.5 -9.5 20.5 -13.5 q1 -1 38.5 -1 q37.5 0 132.5 -1 l167 0 l-4 -8 q-10 -24 -32 -78 q-22 -54 -24 -62 l11 8 q10 7 27 19 q17 14 45 34 q28 21 54 41 l61 46 l166 0 q129 0 158 1 q28 1 32 6 q7 5 13 12 q6 7 9 15 l2 7 l0 223 q0 158 -0.5 194 q-0.5 36 -2.5 35 q-3 9 -11 17 q-7 7 -17 12 ZM530 276 q2 1 7 1 l10 0 q15 0 26 -8 q11 -8 20 -24 q2 -3 4 -6 q2 -3 3 -4 q0 0 3.5 3.5 q3.5 3.5 8.5 7.5 q13 15 24 20.5 q11 5.5 25 3.5 q12 -2 23 -11 q11 -7 23 -24 q0 -1 2 1 q1 1 4 4 q4 3 7 3 q3 1 9 1 q5 0 8 -0.5 q3 -0.5 7 -3.5 q8 -6 16 -16 q8 -10 9 -14 q0 -3 -2 -5 q-2 -2 -4 0 l-4 3 q-3 3 -6 8 q-11 15 -19 17 q-7 2 -17 -5 q-4 -2 -6 -3 q-3 -1 -5 -1 q-2 0 -5 1 l-5 6 q-12 16 -22 23 q-11 6 -22 5 q-7 1 -16 -5 q-9 -6 -23 -22 q-9 -11 -15 -9.5 q-6 1.5 -14 17.5 q-11 17 -23 24 q-6 3 -16.5 2.5 q-10.5 -0.5 -17.5 -3.5 q-13 -7 -26 -33 q-7 -14 -12 -17 q-4 -1 -13 8 q-26 25 -48 14 q-7 -3 -14 -10 q-7 -7 -10 -14 q-6 -10 -11 -2 q-2 5 7.5 17 q9.5 12 22.5 20 q26 12 55 -12 l9 -6 l7 12 q3 5 5 9 q3 6 5 8 q5 6 11 11 q8 6 15 8 ZM881 518 q18 8 32 15 q12 6 13 6 q1 -1 7 -11 q6 -10 9 -15 q2 -8 0 -13 q-2 -7 -9 -10 q-11 -6 -59 -26 q-48 -20 -105 -42 q-11 -4 -18 -7 q-8 -3 -8 -4 q7 -3 74 -29 q68 -28 116 -47 q6 -2 10 -5 q5 -1 5 -2 q-1 -3 -6 -14 q-4 -11 -8 -14 q-6 -8 -20 -5 q-13 5 -52 22 q-39 18 -102 48 q-41 20 -53 28 q-13 7 -13 12 q-1 6 -1 11 q0 4 2 5 q1 1 21 11.5 q20 10.5 51 25.5 q31 16 62 33 q33 17 52 27 ZM218 530 q3 4 5 6 q1 3 2 3 l35 -17 q33 -17 82 -42 l116 -59 l-1 -10 q0 -4 -1 -7.5 q-1 -3.5 -3 -4.5 q-14 -11 -92 -48 q-79 -38 -115 -52 q-13 -5 -21 -4 q-7 1 -12 8 q-3 7 -6 15.5 q-3 8.5 -3 10.5 q10 5 90 36 q79 32 106 43 q4 1 6 2 q2 1 2 1 q0 0 -1.5 1.5 q-1.5 1.5 -3.5 2.5 q-32 11 -94 36 q-64 26 -82 35 q-17 7 -18.5 16 q-1.5 9 9.5 28 ZM213 1007 q6 5 8 6 q2 1 7 1 q-1 5 24 -18 q25 -24 132 -133 l152 -151 l14 1 q14 3 28 1 q14 -1 27 -5 q7 -2 9 -2 q2 0 3 2 q2 2 30 39 q28 37 69 90 q40 54 72 98 q33 42 41 54 q14 18 17 21 q4 4 8 3 q3 0 6 -1 q3 -1 8 -4 q4 -3 6 -6 l2 -2 q0 -1 -17 -23 q-16 -23 -41 -56 q-117 -153 -146 -194 q-31 -41 -25 -37 q4 -1 15 -10 q11 -9 19 -17 l8 -9 l150 -1 q118 0 143 -1 q24 -1 32 -9 q15 -8 26 -24 q10 -14 14 -31 q1 -4 1 -67 l0 -206 q0 -180 -1 -226 q0 -45 -2 -44 q-2 -3 -3.5 -7.5 q-1.5 -4.5 -3.5 -7.5 q-4 -8 -14 -18 q-10 -10 -18 -14 q-4 -7 -38.5 -8.5 q-34.5 -1.5 -204.5 -0.5 l-216 0 l-58 -44 q-25 -18 -43 -31 q-17 -12 -20 -14 q-4 -2 -11 -1 q-6 0 -12 3 q-10 4 -14 13 q-5 8 -3 17 q0 3 3 11 q3 9 8 20 q4 10 6 17 q3 7 3 8 q-3 0 -49 1 l-116 0 q-128 0 -155 1 q-27 1 -34 8 q-8 4 -17 14 q-10 10 -15 18 q-2 3 -3 7 q-2 5 -3 8 q-2 -1 -2 44 q-1 46 -1 226 l0 206 q0 63 1 67 q3 17 14 31 q11 16 25 24 q8 8 35 9 q27 1 170 1 l179 1 l10 10 q9 9 19 17 q9 7 20 13 q4 3 7 4.5 q3 1.5 3 1.5 q-2 3 -44 45 l-104 104 l-147 148 l7 9 Z" /><glyph glyph-name="leetcode" unicode="&#xe886;" d="M676 182 q19 19 44 17 q25 0 44 -18 q19 -20 20 -45 q0 -25 -17 -43 l-122 -123 q-34 -34 -80 -51 q-46 -19 -98 -19 q-52 0 -98 17 q-46 17 -80 51 l-202 202 q-35 35 -52 82 q-18 45 -18 99 q0 52 18 98 q17 44 52 79 l469 470 q19 17 44 17 q25 0 45 -20 q18 -19 18 -43 q1 -25 -17 -45 l-115 -115 q33 -8 61 -24 q30 -15 53 -38 l122 -123 q17 -19 17 -44 q-1 -25 -20 -45 q-19 -18 -44 -18.5 q-25 -0.5 -44 16.5 l-125 122 q-16 15 -38 23 q-22 8 -47 8 q-25 0 -47 -8 q-22 -6 -38 -23 l-200 -203 q-17 -17 -25 -38 q-8 -21 -8 -46 q0 -25 8 -48 q8 -23 25 -39 l200 -203 q16 -16 38 -24 q22 -6 47 -6 q25 0 47 6 q22 8 38 24 l125 121 ZM895 411 q25 -1 41 -19 q17 -17 18 -43 q-1 -28 -18 -45 q-16 -17 -41 -19 l-471 0 q-25 2 -42 19 q-16 17 -17 45 q1 26 17 43 q17 18 42 19 l471 0 Z" /></font>
</defs>
</svg>
