<?xml version="1.0" standalone="no"?>
<!DOCTYPE svg PUBLIC "-//W3C//DTD SVG 1.1//EN" "http://www.w3.org/Graphics/SVG/1.1/DTD/svg11.dtd" >
<svg xmlns="http://www.w3.org/2000/svg" xmlns:xlink="http://www.w3.org/1999/xlink" version="1.1">
<metadata>
Created by FontForge 20190801 at Sat Mar 28 11:31:32 2020
 By Unknown
</metadata>
<defs>
<font id="iconfont" horiz-adv-x="1024" >
  <font-face 
    font-family="iconfont"
    font-weight="400"
    font-stretch="normal"
    units-per-em="1024"
    panose-1="2 0 5 3 0 0 0 0 0 0"
    ascent="896"
    descent="-128"
    bbox="0.181818 -107.4 1344 1014.89"
    underline-thickness="0"
    underline-position="10"
    unicode-range="U+0008-E885"
  />
<missing-glyph 
 />
    <glyph glyph-name=".notdef" 
 />
    <glyph glyph-name=".notdef" 
 />
    <glyph glyph-name=".null" horiz-adv-x="0" 
 />
    <glyph glyph-name=".null" horiz-adv-x="0" 
 />
    <glyph glyph-name="nonmarkingreturn" unicode="&#x9;" horiz-adv-x="341" 
 />
    <glyph glyph-name="nonmarkingreturn" unicode="&#xd;" horiz-adv-x="341" 
 />
    <glyph glyph-name="close" unicode="&#xe69a;" 
d="M177 79q-6 -7 -6 -15.5t6.5 -14.5t15 -6t14.5 6l619 640q6 7 6 15.5t-6.5 14.5t-15 6t-15.5 -6zM795 49q7 -6 15.5 -6t15 6t6.5 14.5t-6 15.5l-619 640q-6 6 -14.5 6t-15 -6t-6.5 -14.5t6 -15.5z" />
    <glyph glyph-name="qqkongjian" unicode="&#xe80f;" horiz-adv-x="1025" 
d="M1023 500q-3 10 -14 11l-347 30l-135 321q-5 9 -15 9t-15 -9l-135 -321l-347 -30q-11 -1 -14 -11t5 -17l263 -228l-79 -339q-2 -10 6.5 -16t17.5 -1l298 180l298 -180q4 -3 9 -3t9 3q8 7 6 17l-62 268q21 11 38 23l18 13q6 -4 -111 -24.5t-425 -4.5l304 221
q11 0 -54 10.5t-339 20.5q-5 7 176.5 26t382.5 -15l-306 -219q2 -1 84.5 -8.5t223.5 -7.5l-9 36l264 228q7 7 4 17z" />
    <glyph glyph-name="sousuo" unicode="&#xe651;" 
d="M966 -29l-230 227q46 51 71 116.5t25 139.5q-4 168 -114.5 277.5t-275.5 113.5q-168 -5 -277.5 -115.5t-113.5 -275.5q5 -167 115.5 -276.5t275.5 -113.5q74 0 139.5 25t116.5 71l230 -227q8 -7 19.5 -7t18.5 7q10 10 10 20.5t-10 17.5zM102 454q4 143 99.5 239.5
t240.5 100.5q145 -4 240 -99t99 -241q-1 -67 -25 -127t-68 -106q-2 0 -3 -1.5t-3 -1.5l-3 -4q-1 -1 -1 -3q-46 -43 -106 -67.5t-127 -25.5q-146 2 -242.5 97.5t-100.5 238.5z" />
    <glyph glyph-name="dangdi" unicode="&#xe6d7;" 
d="M664 567q-1 64 -43.5 106.5t-106.5 43.5q-63 -1 -105.5 -43.5t-44.5 -106.5q2 -64 44.5 -106t105.5 -44q64 2 106.5 44t43.5 106zM404 567q1 47 32.5 78t77.5 32q47 -1 78 -32t32 -78q-1 -47 -32 -78t-78 -32q-46 1 -77.5 32t-32.5 78zM855 155q-70 27 -175 41
q54 89 86.5 181t33.5 166q-3 119 -84 198.5t-203 82.5q-121 -3 -202 -82.5t-84 -198.5q0 -54 20 -123t57 -145q20 -41 43 -79q-106 -13 -176 -41q-92 -36 -92 -89q0 -31 34.5 -57.5t100.5 -45.5q61 -17 137.5 -26.5t161.5 -9.5t161 9.5t137 26.5q67 19 101.5 45.5t34.5 57.5
q0 53 -92 89zM267 543q2 102 72 170t174 71q105 -3 174.5 -71t72.5 -170q-1 -73 -36.5 -166.5t-92.5 -183.5q-3 -3 -4 -6q-26 -39 -53.5 -72.5t-56.5 -60.5l-1 -1q0 -2 -2.5 -2t-3.5 2l-1 1q-98 96 -168.5 238t-73.5 251zM800 1q-58 -16 -131.5 -25t-155.5 -9t-156 9
t-132 26t-82.5 34.5t-23.5 29.5q-1 22 60.5 49.5t191.5 42.5q53 -79 110 -133q13 -14 32 -14t32 14q59 56 111 133q129 -15 190 -42.5t61 -49.5q1 -12 -24 -29.5t-83 -35.5z" />
    <glyph glyph-name="zuirehotxiankuang" unicode="&#xe837;" horiz-adv-x="1792" 
d="M1216 704h-960q-54 -1 -90.5 -37.5t-37.5 -90.5v-448q1 -54 37.5 -90.5t90.5 -37.5h960q54 1 90.5 37.5t37.5 90.5v448q-1 54 -37.5 90.5t-90.5 37.5zM1280 128q-1 -27 -19 -45t-45 -19h-960q-27 1 -45 19t-19 45v448q1 27 19 45t45 19h960q27 -1 45 -19t19 -45v-448z
M544 512q-14 0 -23 -9t-9 -23v-96h-128v96q0 14 -9 23t-23 9t-23 -9t-9 -23v-256q0 -14 9 -23t23 -9t23 9t9 23v96h128v-96q0 -14 9 -23t23 -9t23 9t9 23v256q0 14 -9 23t-23 9zM1120 512h-128q-14 0 -23 -9t-9 -23t9 -23t23 -9h32v-224q0 -14 9 -23t23 -9t23 9t9 23v224h32
q14 0 23 9t9 23t-9 23t-23 9zM768 512q-54 -1 -90.5 -37.5t-37.5 -90.5v-64q1 -54 37.5 -90.5t90.5 -37.5q54 1 90.5 37.5t37.5 90.5v64q-1 54 -37.5 90.5t-90.5 37.5zM832 320q-1 -27 -19 -45t-45 -18t-45 18t-19 45v64q1 27 19 45t45 18t45 -18t19 -45v-64z" />
    <glyph glyph-name="douban" unicode="&#xe64d;" 
d="M745 588q-115 1 -231 0q-117 1 -235 0q-58 0 -86 -28.5t-29 -86.5q-1 -52 0.5 -103.5t29 -79.5t77.5 -29q241 -1 481 0q50 1 77.5 28t29.5 76q3 56 1 113q-3 110 -115 110zM777 394q0 -27 -11.5 -39t-39.5 -12q-76 -2 -152 -1h-64h-201q-38 0 -51 13t-12 52q-1 27 0 54
q2 23 12.5 34t33.5 11q219 2 437 0q26 0 36.5 -11.5t11.5 -36.5q2 -32 0 -64zM861 76h-117q-15 1 -34 5l20 39l20 34q7 13 7 25.5t-9 24.5q-16 18 -35 15.5t-34 -25.5q-29 -45 -54 -93q-7 -13 -17 -19.5t-26 -5.5q-71 1 -142 0q-27 -1 -39 23q-25 45 -52 89
q-14 23 -28.5 29.5t-30.5 -2.5q-38 -19 -13 -67q8 -15 18 -33l23 -39h-103q-35 1 -69 -1q-41 -3 -43 -38q-1 -18 10.5 -29t33.5 -13q17 -1 34 0h678q62 0 62 39q2 41 -60 42zM207 692h305h196q64 -1 128 1q22 1 33 12t10 29q-2 34 -42 39q-10 1 -20 0h-609q-66 0 -63 -43
q0 -20 15 -29t47 -9z" />
    <glyph glyph-name="github" unicode="&#xe718;" 
d="M512 823q119 0 220 -59t160 -160t59 -220q0 -143 -84 -258t-216 -159q-16 -2 -23 4.5t-7 17.5v120q0 56 -30 81q33 4 59 10.5t53.5 22t46 38t30.5 60t12 86.5q0 68 -45 118q21 52 -5 116q-16 5 -46 -6.5t-53 -24.5l-21 -14q-54 15 -110.5 15t-109.5 -15q-9 6 -24 15.5
t-47.5 22t-48.5 7.5q-26 -64 -5 -116q-45 -50 -45 -118q0 -49 11.5 -86t30 -60t46 -38.5t53.5 -22t59 -10.5q-22 -20 -28 -59q-12 -5 -26 -8t-32.5 -3t-37 12.5t-32.5 35.5q-10 18 -27 29.5t-29 14.5l-11 1q-12 0 -16.5 -2.5t-3 -6.5t5 -8t7.5 -7l4 -3q13 -5 25 -21t18 -29
l6 -14q7 -21 25 -34.5t38.5 -17.5t39.5 -4t32 2l13 2v-81q0 -11 -7 -17.5t-23 -3.5q-132 44 -216 158.5t-84 257.5q0 120 59 220.5t160 159.5t220 59zM239 193q2 4 -3.5 6t-7.5 -1.5t3.5 -6.5t7.5 2zM257 173q4 3 -1.5 8.5t-9 2.5t2 -9t8.5 -2zM274 147q5 4 0.5 11.5t-10 4
t0 -11t9.5 -4.5zM298 123q5 5 -2 11.5t-12 1.5t2.5 -11.5t11.5 -1.5zM331 109q2 6 -7 9t-11.5 -3.5t7 -9.5t11.5 4zM367 106q0 8 -9.5 7.5t-9.5 -7.5t9.5 -6.5t9.5 6.5zM400 112q-1 6 -10 4.5t-8 -8t10 -4.5t8 8z" />
    <glyph glyph-name="weixin" unicode="&#xe62b;" 
d="M693 559q17 0 34 -2q-26 111 -126 180.5t-236 71.5q-151 -3 -252.5 -88.5t-105.5 -216.5q1 -74 38.5 -134.5t104.5 -107.5l-35 -108l125 63q33 -7 62.5 -12.5t62.5 -5.5q17 0 34 1q-11 36 -11 75q3 121 88.5 201t216.5 83zM497 664q24 -1 39.5 -16.5t15.5 -39
t-15.5 -39.5t-39 -16t-39 16t-15.5 39.5t15.5 39t38.5 16.5zM247 552q-24 0 -39.5 15.5t-15.5 39.5t15.5 39.5t39 15.5t39 -15.5t15.5 -39.5t-15.5 -39.5t-38.5 -15.5zM1017 279q-4 110 -91.5 183.5t-212.5 76.5q-131 -3 -216.5 -76.5t-88.5 -183.5q3 -111 88.5 -184.5
t216.5 -76.5q27 1 54 6t53 12l99 -53l-27 89q55 41 89.5 93.5t35.5 113.5zM619 319q-17 0 -28 11t-11 28t11 28t28 11t28 -11t11 -28t-11 -28t-28 -11zM816 316q-17 1 -28 12t-11 28t11 28t28 11t28 -11t11 -28t-11 -28t-28 -12z" />
    <glyph glyph-name="google" unicode="&#xe692;" 
d="M511 -61q-190 5 -316 131.5t-131 315.5q5 190 131.5 316t315.5 131q76 0 145.5 -24t128.5 -70q11 -9 12.5 -22.5t-8.5 -24.5l-84 -92q-9 -9 -20.5 -10.5t-21.5 5.5q-33 24 -71.5 36.5t-80.5 12.5q-109 -2 -182 -75t-76 -183q3 -109 76.5 -182t182.5 -76q83 2 146.5 46.5
t92.5 117.5h-208q-13 0 -22 9t-10 23v125q1 13 10 22t22 10h383q14 -1 23 -10t9 -22v-63q-5 -189 -131 -315.5t-316 -131.5z" />
    <glyph glyph-name="weibo" unicode="&#xe608;" 
d="M727 425q-24 6 -22 15t4.5 11t11 32.5t-18.5 62.5q-44 32 -105.5 15.5t-67.5 -21.5q-34 -10 -34.5 2.5t6.5 39.5q3 36 -23 67t-117 4q-96 -40 -162.5 -111t-69.5 -79q-53 -75 -60.5 -123.5t-4.5 -50.5q21 -123 124.5 -171t215.5 -53q116 -9 236 36t171 140
q38 94 -6.5 137t-77.5 47zM415 112q-113 -4 -188 42t-78 120q3 74 78 124t188 57q112 4 187 -36.5t78 -113.5q-3 -74 -78 -130t-187 -63zM385 391q-105 -21 -120.5 -83t-9.5 -70q-1 -2 4.5 -24.5t34.5 -40.5q67 -33 126 -19t94 58q36 50 8 117t-137 62zM348 200
q-21 -2 -35 8t-14 27.5t13 31.5t34 17q24 2 37.5 -9t13.5 -28.5t-14 -30.5t-35 -16zM435 273q-7 -5 -14.5 -4.5t-11 7t-2 14.5t9 13.5t15 4.5t11 -7.5t1.5 -14t-9 -13.5zM798 484q10 0 16.5 6t7.5 14v3q4 113 -59 126t-73 6q-10 0 -17 -7t-7 -17t7 -17t17 -7q76 10 82.5 -33
t1.5 -50q0 -10 7 -17t17 -7zM781 763q-40 8 -74 5t-47 -6l-4 -2q-11 -4 -18 -13t-8 -21q1 -14 11 -24t25 -11l11 2q10 2 20 6q15 6 72.5 -7.5t101.5 -77.5q21 -49 18 -79t-7 -36l-3 -11q-3 -10 -3 -23.5t9.5 -22t24.5 -8.5q13 -1 22 4.5t12 24.5v0q37 141 -24.5 213
t-138.5 87zM781 763z" />
    <glyph glyph-name="time-circle" unicode="&#xe784;" 
d="M512 832q-190 -5 -316.5 -131.5t-131.5 -316.5q5 -190 131.5 -316.5t316.5 -131.5q190 5 316.5 131.5t131.5 316.5q-5 190 -131.5 316.5t-316.5 131.5zM512 12q-158 4 -263 109t-109 263q4 158 109 263t263 109q158 -4 263 -109t109 -263q-4 -158 -109 -263t-263 -109z
M687 257l-143 104v247q-1 7 -8 8h-48q-7 -1 -8 -8v-275q0 -4 3 -7l166 -120q6 -4 11 1l29 39q3 7 -2 11z" />
    <glyph glyph-name="eye1" unicode="&#xe78f;" 
d="M942 410q-142 300 -430 300t-430 -300q-12 -26 0 -52q142 -300 430 -300t430 300q12 26 0 52zM512 130q-121 0 -210.5 62.5t-152.5 191.5q63 129 152.5 191.5t210.5 62.5t210.5 -62.5t152.5 -191.5q-62 -129 -152 -191.5t-211 -62.5zM508 560q-75 -2 -124.5 -51.5
t-51.5 -124.5q2 -75 51.5 -124.5t124.5 -51.5q75 2 124.5 51.5t51.5 124.5q-2 75 -51.5 124.5t-124.5 51.5zM508 272q-48 1 -79.5 32.5t-32.5 79.5q1 48 32.5 79.5t79.5 32.5q48 -1 79.5 -32.5t32.5 -79.5q-1 -48 -32.5 -79.5t-79.5 -32.5z" />
    <glyph glyph-name="folder" unicode="&#xe7d1;" 
d="M880 598h-359l-117 112q-3 2 -6 2h-254q-14 0 -23 -9t-9 -23v-592q0 -14 9 -23t23 -9h736q14 0 23 9t9 23v478q0 13 -9 22t-23 10zM840 128h-656v512h189l119 -114h348v-398z" />
    <glyph glyph-name="tag1" unicode="&#xe7e4;" 
d="M938 437l-30 313q-1 12 -9.5 20.5t-20.5 9.5l-313 30q-5 0 -8 -3l-468 -468q-6 -7 0 -14l364 -364q3 -3 7 -3t7 3l468 468q3 4 3 8zM460 61l-271 271l400 399l247 -23l23 -247zM680 640q-37 -1 -62 -26t-25 -62t25 -62t62 -25t62 25t25 62t-25 62t-62 26zM680 520
q-14 0 -23 9t-9 23t9 23t23 9t23 -9t9 -23t-9 -23t-23 -9z" />
    <glyph glyph-name="share" unicode="&#xe7e7;" 
d="M752 232q-44 -1 -75 -27l-208 150q3 14 3 29t-3 29l208 150q31 -26 75 -27q51 1 85 35t35 85q-1 51 -35 85t-85 35q-51 -1 -85 -35t-35 -85q0 -17 5 -33l-197 -143q-22 30 -55 47t-73 17q-68 -2 -113 -47t-47 -113q2 -68 47 -113t113 -47q40 0 73 17t55 47l197 -143
q-5 -16 -5 -33q1 -51 35 -85t85 -35q51 1 85 35t35 85q-1 51 -35 85t-85 35zM752 708q22 -1 36.5 -15.5t14.5 -36.5t-14.5 -36.5t-36.5 -14.5t-36.5 14.5t-14.5 36.5t14.5 36.5t36.5 15.5zM312 296q-37 1 -62 26t-25 62t25 62t62 25t62 -25t25 -62t-25 -62t-62 -26zM752 60
q-22 1 -36.5 15.5t-14.5 36.5t14.5 36.5t36.5 14.5t36.5 -14.5t14.5 -36.5t-14.5 -36.5t-36.5 -15.5z" />
    <glyph glyph-name="right" unicode="&#xe7eb;" 
d="M766 409l-451 352q-4 3 -8.5 1t-4.5 -7v-77q0 -8 6 -13l360 -281l-360 -281q-6 -5 -6 -13v-77q0 -5 4.5 -7t8.5 1l451 352q12 10 12 25t-12 25z" />
    <glyph glyph-name="left" unicode="&#xe7ec;" 
d="M724 678v77q0 5 -4.5 7t-8.5 -1l-451 -352q-12 -10 -12 -25t12 -25l451 -352q4 -3 8.5 -1t4.5 7v77q0 8 -6 13l-360 281l360 281q6 5 6 13z" />
    <glyph glyph-name="arrowup" unicode="&#xe7ee;" 
d="M868 351l-332 382q-10 11 -24 11t-24 -11l-332 -382q-3 -5 -1 -9t7 -5h81q7 0 12 6l219 252v-563q1 -7 8 -8h60q7 1 8 8v563l219 -252q5 -6 12 -6h81q5 1 7 5t-1 9z" />
    <glyph glyph-name="menu" unicode="&#xe7f4;" 
d="M904 736h-784q-7 -1 -8 -8v-64q1 -7 8 -8h784q7 1 8 8v64q-1 7 -8 8zM904 112h-784q-7 -1 -8 -8v-64q1 -7 8 -8h784q7 1 8 8v64q-1 7 -8 8zM904 424h-784q-7 -1 -8 -8v-64q1 -7 8 -8h784q7 1 8 8v64q-1 7 -8 8z" />
    <glyph glyph-name="alipay" unicode="&#xe87c;" 
d="M789 286q-29 10 -67 24l-81 29q52 91 80 204h-190v69h233v38h-233v114h-96q-12 -1 -14.5 -8t-2.5 -8v-98h-236v-39h237v-68h-196v-38h379q-21 -72 -55 -133q-94 31 -183 48.5t-153 4.5q-39 -10 -65 -26t-41 -35q-68 -90 -23.5 -181t190.5 -98q86 0 165.5 44.5
t143.5 123.5q107 -50 237 -105.5t142 -60.5v150q2 -2 -33.5 6.5t-137.5 42.5zM254 149q-113 6 -144.5 68t23.5 116q20 16 47.5 24.5t47.5 10.5q66 5 131.5 -16t138.5 -57q-53 -68 -115.5 -106.5t-128.5 -39.5z" />
    <glyph glyph-name="zhihu" unicode="&#xe87d;" 
d="M565 666v-573h60l25 -71l106 71h132v573h-323zM812 169h-59l-76 -51l-17 51h-18v419h170v-419zM526 409h-133q3 69 7 173h131l-1 17q0 9 -1.5 20.5t-6 22.5t-15.5 12h-219q3 17 11 45.5t18 48.5l7 11l-13 1q-1 0 -13 -1.5t-29 -9.5q-26 -15 -39.5 -38.5t-18.5 -45.5
q-15 -55 -31 -92t-25 -54q-5 -9 -6 -13q-3 -7 3 -13q9 -6 22.5 -2t15.5 5l2 1q12 4 34.5 22.5t35.5 62.5h57l1 -86q2 -57 2 -87h-141l-2 -1q-18 -15 -24.5 -38.5t-6.5 -27.5l-2 -9h167q-9 -58 -18.5 -87.5t-15.5 -39.5l-10 -21q-14 -31 -40 -67.5t-87 -86.5q-6 -4 -4 -13.5
t24 -8.5q8 -1 20 1q37 1 72.5 18.5t62.5 68.5q25 53 44 109l136 -160l5 12q2 3 8 30.5t-3 65.5v2l-108 123l-22 -17q9 39 12 71h159v8q-1 30 -9.5 47t-9.5 18z" />
    <glyph glyph-name="facebook" unicode="&#xe87e;" 
d="M880 784h-736q-14 0 -23 -9t-9 -23v-736q0 -14 9 -23t23 -9h736q14 0 23 9t9 23v736q0 14 -9 23t-23 9zM848 48h-184v246h104l16 121h-120v77q-1 26 11 42t49 16h64v108q-9 2 -34.5 3.5t-59.5 1.5q-70 0 -112 -41t-43 -118v-89h-104v-121h104v-246h-363v672h672v-672z
" />
    <glyph glyph-name="instagram" unicode="&#xe87f;" 
d="M512 589q-87 -2 -145 -60t-60 -145q2 -87 60 -145t145 -60q87 2 145 60t60 145q-2 87 -60 145t-145 60zM512 251q-56 1 -94 39t-39 94q1 57 39 94.5t94 38.5q57 -1 94.5 -39t38.5 -94q-1 -56 -38.5 -94t-94.5 -39zM726 645q-21 0 -34.5 -13.5t-13.5 -34t13.5 -34
t34 -13.5t34 13.5t13.5 34t-13.5 34t-33.5 13.5zM912 384q1 83 -3 165q-1 48 -15.5 90t-49.5 77t-77 49t-90 16q-82 4 -164.5 4t-165.5 -4q-48 -2 -90 -16t-77 -49t-49 -77t-16 -90q-4 -83 -4 -165t4 -165q2 -48 16 -90t49 -77t77 -49t90 -16q83 -4 165.5 -4t164.5 4
q48 2 90.5 16t77 49t49 77t15.5 90q4 82 3 165zM824 148q-6 -13 -13 -24t-17.5 -21.5t-21.5 -17.5t-24 -13q-44 -15 -116 -16t-120 -1t-120 1t-116 16q-13 5 -24 12.5t-21.5 18t-18 21.5t-12.5 24q-15 44 -16 116t-1 120t1 120t16 116q5 13 12.5 24t18 21.5t21.5 18t24 12.5
q44 15 116 16t120 1t120 -1t116 -16q13 -5 24 -12.5t21.5 -18t18 -21.5t12.5 -24q15 -44 16 -116t1 -120t-1 -120t-16 -116z" />
    <glyph glyph-name="QQ" unicode="&#xe882;" 
d="M825 283q-12 37 -27 75l-36 90q4 143 -57 237.5t-193 98.5q-135 -4 -195 -99.5t-56 -236.5l-36 -90q-15 -38 -27 -75q-24 -82 -23 -119t9 -37q16 4 41.5 40.5t28.5 41.5q0 -37 19.5 -80t60.5 -79q-24 -6 -51.5 -20.5t-20.5 -32.5q18 -14 109 -13t141 6q49 -5 140 -6
t109 13q7 18 -21 32.5t-51 20.5q41 36 60.5 79t19.5 80q3 -5 28.5 -41.5t41.5 -40.5q8 0 9 37t-23 119z" />
    <glyph glyph-name="twitter" unicode="&#xe883;" 
d="M928 642q-46 -21 -98 -27q27 16 46 40t29 54q-50 -29 -108 -41q-24 25 -56 39.5t-69 14.5q-73 -2 -121 -50t-49 -121q0 -20 4 -39q-107 7 -197.5 53.5t-154.5 125.5q-23 -39 -23 -86q0 -45 20.5 -82t55.5 -60q-43 2 -77 21v-2q1 -63 39 -108.5t98 -58.5q-22 -6 -45 -6
q-17 0 -33 3q18 -52 60.5 -84.5t99.5 -34.5q-44 -34 -98 -53t-114 -20q-21 0 -41 3q57 -37 123 -57t139 -20q236 9 360 158t125 327v23q50 36 85 88z" />
    <glyph glyph-name="icon-test" unicode="&#xe673;" 
d="M784 159v0q-15 0 -28 -4q-5 -2 -10.5 0t-9.5 6l-366 366q-5 4 -6 10.5t2 11.5q11 28 11 60v0q-1 52 -30 90l-5 7l-10 11q-45 45 -108 45q-13 0 -24 -2v0l-8 -2l64 -23q5 -2 8.5 -6.5t4.5 -9.5l1 -12l1 -25l-81 -115l-115 41l47 -77l5 -4q44 -45 107 -45q32 0 60 11
q6 3 12 1.5t10 -5.5l367 -366q4 -4 5 -9.5t0 -10.5q-4 -13 -3 -28v0q0 -45 32 -77t77 -33l3 1q44 0 75 31q11 11 18 24q3 12 3 26v2q0 45 -32 77t-77 33zM850 130q23 -23 23 -56v0q0 -8 -2 -16l-91 -35l-35 36q26 94 49 95q33 0 56 -24zM807 97q-16 -1 -27 -12t-11 -26
l-1 -1q1 -15 12 -26.5t26 -11.5l1 1q15 0 26 11t12 27v0q0 16 -11 27t-27 11v0zM248 708q-1 -5 0 -10v0q0 -64 -45 -108l-114 41q-7 2 -14.5 -0.5t-11 -8.5t-2.5 -14q9 -54 48 -96l6 -7q57 -56 137 -57q34 0 63 10l349 -349q-3 -13 -2 -27v0q0 -61 44 -105.5t106 -44.5h3
q60 0 103.5 43.5t44.5 103.5v4q0 62 -44.5 106t-106.5 44h1q-15 1 -27 -2l-349 349q9 29 9 63q0 80 -56.5 136.5t-136.5 56.5q-17 0 -31 -2h-1q-57 -9 -99 -48q-6 -5 -7 -12.5t3 -13.5t11 -9zM283 736q-4 5 -9 7l-95 34q22 12 49 16h1q11 2 23 2q64 0 108.5 -44.5
t44.5 -108.5v0q0 -32 -11 -59q-3 -6 -1.5 -12t5.5 -11l367 -366q3 -4 8.5 -5.5t10.5 0.5q13 3 28 3h1q44 0 76 -32t33 -77v-3q-1 -28 -14 -51q-7 -13 -18 -24q-31 -31 -76 -32h-2q-45 0 -77 32t-32 77v1q-1 14 3 27q2 5 0.5 10.5t-5.5 9.5l-366 367q-5 4 -11.5 5t-11.5 -1
q-28 -12 -60 -11q-63 0 -107 44l-6 6q-16 18 -26 38l88 -32q5 -2 10.5 -1t9.5 5l12 10q23 24 37 52q19 39 19 85v1q0 14 -2 28q-1 5 -4 10zM756 138q-23 -23 -23.5 -56t23 -56t56.5 -23t55.5 23t23.5 56v0q0 33 -23 56.5t-56 23t-56 -23.5zM812 120h1q15 0 26 -11t11 -26v-1
q-1 -16 -12 -27t-26 -11h-1q-15 0 -26 11t-12 27h1q0 15 11 26.5t27 11.5z" />
    <glyph glyph-name="icon-test1" unicode="&#xe676;" 
d="M589 328h-1q-78 77 -157 162l-79 -80q84 -78 162 -156q180 -182 327 -359l106 106q-178 146 -358 327zM416 533l111 155l-92 92l-218 -122l-148 -257l84 -86l156 111zM447 875q-8 1 -13 -2l-257 -147q-5 -2 -7 -7l-147 -257q-3 -5 -2.5 -12t6.5 -13l115 -115
q5 -5 12.5 -5.5t13.5 3.5l158 112q85 -79 164 -158q188 -189 339 -374q3 -5 8.5 -6.5t11.5 -0.5t10 5l138 139q5 4 6 10t-1 11.5t-6 9.5q-185 150 -373 338q-80 79 -159 164l112 157q4 7 3.5 14.5t-5.5 12.5l-115 115q-6 6 -12 6zM594 377v0q180 -181 358 -327l-106 -106
q-146 178 -327 359q-77 78 -162 157l79 79q79 -85 158 -162zM159 364l-92 92l135 237l238 136l92 -92l-111 -155l-107 -107z" />
    <glyph glyph-name="rss" unicode="&#xe6bb;" 
d="M912 22q1 -15 -10 -26.5t-27 -11.5h-81q-15 0 -25.5 10t-10.5 24q-7 122 -57.5 232t-131.5 191t-191 131.5t-232 58.5q-14 0 -24 10.5t-10 24.5v82q0 16 11 26t25 10h2q149 -7 285 -68t242 -167t166.5 -242t68.5 -285zM621 23q1 -16 -9.5 -27.5t-26.5 -11.5h-77
q-14 0 -24 9.5t-12 23.5q-12 130 -104.5 222.5t-222.5 104.5q-14 1 -23.5 11.5t-8.5 24.5v76q0 17 11 27q10 10 25 10h3q90 -8 173 -46.5t147.5 -103t103 -147t45.5 -173.5zM299 170q31 -31 31 -76.5t-31.5 -77.5t-77 -32t-77.5 31.5t-32 77t32 77.5t77.5 32t77.5 -32z" />
    <glyph glyph-name="menu-" unicode="&#xe600;" 
d="M512 469q36 -1 60 -25t24 -60t-24 -60t-60 -24t-60 24t-24 60t24 60t60 25zM512 597q-36 1 -60 25.5t-24 60.5t24 60t60 24t60 -24t24 -60t-24 -60.5t-60 -25.5zM512 171q36 -1 60 -25.5t24 -60.5t-24 -60t-60 -24t-60 24t-24 60t24 60.5t60 25.5z" />
    <glyph glyph-name="cloudmusic" unicode="&#xe884;" 
d="M775 900q-45 19 -92 6t-80 -53q-13 -14 -15 -33q-3 -18 0 -67l4 -76l-31 -13q-66 -30 -100 -82q-34 -53 -34 -123q2 -105 60 -159q56 -55 143 -34q52 15 85 61q35 47 36 101q0 8 -4.5 32.5t-12.5 52.5q-8 29 -11 50q-4 21 -2 24q13 7 52 -21q38 -28 60 -60q16 -25 22 -47
q6 -24 7 -72q4 -53 0 -75q-4 -23 -22 -59q-75 -148 -250 -148q-61 0 -104 17q-44 16 -87 58q-55 50 -83 112q-27 63 -27 136q0 89 37 157q36 68 115 124q56 39 70 62q13 23 -9 45q-7 6 -15 11q-10 5 -19 5q-39 -4 -109 -63q-69 -60 -109 -123q-100 -192 -22 -383
q77 -193 278 -250q47 -10 111 -6q65 4 108 20q76 30 134 86t82 122q17 54 15 134q-1 80 -20 133q-29 74 -79.5 119.5t-124.5 62.5q-28 7 -36 14q-10 8 -17 32q-6 20 -5 32t9 25q12 23 29 25q18 3 49 -14q14 -8 28 -13q13 -5 18 -5q13 1 26 17q13 15 14 32q-1 16 -23 37.5
t-49 33.5zM572 563q32 22 44 13q13 -10 24 -64q7 -28 11 -54q4 -27 4 -38q-2 -34 -33 -53t-62 -5q-17 9 -30 37q-13 27 -14 53q1 32 18 64q16 32 38 47z" />
    <glyph glyph-name="bangumi" unicode="&#xe885;" 
d="M972 602l-8 3l-407 -1q-248 1 -332 0q-83 0 -79 -1q-11 -5 -19 -12q-8 -9 -12 -20q-2 1 -3 -35v-192v-183q1 -45 2 -45q3 -11 12.5 -20.5t20.5 -13.5q1 -1 38.5 -1t132.5 -1h167l-4 -8q-10 -24 -32 -78t-24 -62l11 8q10 7 27 19q17 14 45 34q28 21 54 41l61 46h166
q129 0 158 1q28 1 32 6q7 5 13 12t9 15l2 7v223q0 158 -0.5 194t-2.5 35q-3 9 -11 17q-7 7 -17 12zM530 276q2 1 7 1h10q15 0 26 -8t20 -24l4 -6t3 -4l3.5 3.5t8.5 7.5q13 15 24 20.5t25 3.5q12 -2 23 -11q11 -7 23 -24q0 -1 2 1l4 4q4 3 7 3q3 1 9 1q5 0 8 -0.5t7 -3.5
q8 -6 16 -16t9 -14q0 -3 -2 -5t-4 0l-4 3q-3 3 -6 8q-11 15 -19 17q-7 2 -17 -5l-6 -3q-3 -1 -5 -1t-5 1l-5 6q-12 16 -22 23q-11 6 -22 5q-7 1 -16 -5t-23 -22q-9 -11 -15 -9.5t-14 17.5q-11 17 -23 24q-6 3 -16.5 2.5t-17.5 -3.5q-13 -7 -26 -33q-7 -14 -12 -17
q-4 -1 -13 8q-26 25 -48 14q-7 -3 -14 -10t-10 -14q-6 -10 -11 -2q-2 5 7.5 17t22.5 20q26 12 55 -12l9 -6l7 12q3 5 5 9q3 6 5 8q5 6 11 11q8 6 15 8zM881 518q18 8 32 15q12 6 13 6q1 -1 7 -11l9 -15q2 -8 0 -13q-2 -7 -9 -10q-11 -6 -59 -26t-105 -42q-11 -4 -18 -7
q-8 -3 -8 -4q7 -3 74 -29q68 -28 116 -47q6 -2 10 -5q5 -1 5 -2q-1 -3 -6 -14q-4 -11 -8 -14q-6 -8 -20 -5q-13 5 -52 22q-39 18 -102 48q-41 20 -53 28q-13 7 -13 12q-1 6 -1 11q0 4 2 5q1 1 21 11.5t51 25.5q31 16 62 33q33 17 52 27zM218 530q3 4 5 6q1 3 2 3l35 -17
q33 -17 82 -42l116 -59l-1 -10q0 -4 -1 -7.5t-3 -4.5q-14 -11 -92 -48q-79 -38 -115 -52q-13 -5 -21 -4q-7 1 -12 8q-3 7 -6 15.5t-3 10.5q10 5 90 36q79 32 106 43q4 1 6 2l2 1l-1.5 1.5t-3.5 2.5q-32 11 -94 36q-64 26 -82 35q-17 7 -18.5 16t9.5 28zM213 1007q6 5 8 6
t7 1q-1 5 24 -18q25 -24 132 -133l152 -151l14 1q14 3 28 1q14 -1 27 -5q7 -2 9 -2t3 2q2 2 30 39t69 90q40 54 72 98q33 42 41 54q14 18 17 21q4 4 8 3q3 0 6 -1t8 -4q4 -3 6 -6l2 -2q0 -1 -17 -23q-16 -23 -41 -56q-117 -153 -146 -194q-31 -41 -25 -37q4 -1 15 -10
t19 -17l8 -9l150 -1q118 0 143 -1q24 -1 32 -9q15 -8 26 -24q10 -14 14 -31q1 -4 1 -67v-206q0 -180 -1 -226q0 -45 -2 -44q-2 -3 -3.5 -7.5t-3.5 -7.5q-4 -8 -14 -18t-18 -14q-4 -7 -38.5 -8.5t-204.5 -0.5h-216l-58 -44q-25 -18 -43 -31q-17 -12 -20 -14q-4 -2 -11 -1
q-6 0 -12 3q-10 4 -14 13q-5 8 -3 17q0 3 3 11q3 9 8 20q4 10 6 17q3 7 3 8q-3 0 -49 1h-116q-128 0 -155 1t-34 8q-8 4 -17 14q-10 10 -15 18q-2 3 -3 7q-2 5 -3 8q-2 -1 -2 44q-1 46 -1 226v206q0 63 1 67q3 17 14 31q11 16 25 24q8 8 35 9t170 1l179 1l10 10q9 9 19 17
q9 7 20 13q4 3 7 4.5l3 1.5q-2 3 -44 45l-104 104l-147 148z" />
  </font>
</defs>
</svg>
